<?xml version="1.0" encoding="UTF-8" standalone="no"?>
<svg width="893px" height="525px" viewBox="0 0 893 525" version="1.1" xmlns="http://www.w3.org/2000/svg" xmlns:xlink="http://www.w3.org/1999/xlink">
    <!-- Generator: Sketch 47.1 (45422) - http://www.bohemiancoding.com/sketch -->
    <title>Group 4</title>
    <desc>Created with Sketch.</desc>
    <defs></defs>
    <g id="Page-1" stroke="none" stroke-width="1" fill="none" fill-rule="evenodd">
        <g id="Artboard-Copy-46" transform="translate(-547.000000, -11.000000)" stroke="#FFFFFF">
            <g id="Group-4" transform="translate(443.000000, -186.000000)">
                <g id="Group-2" transform="translate(837.399944, 467.236170) rotate(60.000000) translate(-837.399944, -467.236170) translate(592.899944, 233.236170)">
                    <g id="Group" transform="translate(0.000000, -0.000000)">
                        <path d="M282.714844,197.265625 L182.957031,297.259766 L282.714844,197.265625 Z" id="Path-9"></path>
                        <polyline id="Path-11" points="42 262.273438 146.53125 160 183.710937 296.027344 321.939453 334.171875 358.472656 467.933594 458.273437 371.113281"></polyline>
                        <polyline id="Path-13" points="488.578125 249.976562 422.158203 231.265625 385.5 96.5"></polyline>
                        <polyline id="Path-14" points="42.3037109 262.34668 184.71875 296.547852 76.5595703 397.063477"></polyline>
                        <polygon id="Path-15" points="109.227242 0.491012099 146.792969 160.308594 271.709103 35.9469861"></polygon>
                        <polyline id="Path-12" points="485.851562 121.65625 385.015625 96 282.5 197.689453 321.978516 334.828125 421.736328 231.791016"></polyline>
                        <path d="M283.651107,196.958142 L0.0303934278,118.477065" id="Path-2"></path>
                    </g>
                </g>
                <g id="Group-3-Copy-3" transform="translate(413.949926, 404.250253) rotate(60.000000) translate(-413.949926, -404.250253) translate(127.449926, 92.250253)">
                    <g id="Group-2" transform="translate(61.000000, 263.500000)">
                        <ellipse id="Oval-Copy" cx="71.6896054" cy="5.31666667" rx="5.31713186" ry="5.31666667"></ellipse>
                        <ellipse id="Oval-Copy-2" cx="25.8522618" cy="14.1166667" rx="5.31713186" ry="5.31666667"></ellipse>
                        <ellipse id="Oval-Copy-4" cx="5.31713186" cy="77.9166667" rx="5.31713186" ry="5.31666667"></ellipse>
                        <ellipse id="Oval-Copy-6" cx="148.329644" cy="29.5166667" rx="5.31713186" ry="5.31666667"></ellipse>
                        <ellipse id="Oval-Copy-8" cx="150.163138" cy="150.516667" rx="5.31713186" ry="5.31666667"></ellipse>
                        <ellipse id="Oval-Copy-10" cx="333.512512" cy="42.35" rx="5.31713186" ry="5.31666667"></ellipse>
                        <ellipse id="Oval-Copy-12" cx="375.682868" cy="154.183333" rx="5.31713186" ry="5.31666667"></ellipse>
                        <ellipse id="Oval-Copy-14" cx="280.341193" cy="59.2166667" rx="5.31713186" ry="5.31666667"></ellipse>
                        <ellipse id="Oval-Copy" fill="#FFFFFF" cx="71.6896054" cy="5.31666667" rx="3.48363811" ry="3.48333333"></ellipse>
                        <ellipse id="Oval-Copy-3" fill="#FFFFFF" cx="25.8522618" cy="14.1166667" rx="3.48363811" ry="3.48333333"></ellipse>
                        <ellipse id="Oval-Copy-5" fill="#FFFFFF" cx="5.31713186" cy="77.9166667" rx="3.48363811" ry="3.48333333"></ellipse>
                        <ellipse id="Oval-Copy-7" fill="#FFFFFF" cx="148.329644" cy="29.5166667" rx="3.48363811" ry="3.48333333"></ellipse>
                        <ellipse id="Oval-Copy-9" fill="#FFFFFF" cx="150.163138" cy="150.516667" rx="3.48363811" ry="3.48333333"></ellipse>
                        <ellipse id="Oval-Copy-11" fill="#FFFFFF" cx="333.512512" cy="42.35" rx="3.48363811" ry="3.48333333"></ellipse>
                        <ellipse id="Oval-Copy-13" fill="#FFFFFF" cx="375.682868" cy="154.183333" rx="3.48363811" ry="3.48333333"></ellipse>
                        <ellipse id="Oval-Copy-15" fill="#FFFFFF" cx="280.341193" cy="59.2166667" rx="3.48363811" ry="3.48333333"></ellipse>
                        <polyline id="Path-4" stroke-width="0.5" points="5.19107916 79.0352865 26.2175281 12.2303385 71.5993631 5.21210937 149.886681 31.202474 149.886681 149.10013 149.886681 28.9509115 280.558921 60.2135417 333.6357 42.3714844 376.251538 153.13776 277.5179 56.6184896"></polyline>
                        <polyline id="Path-5" stroke-width="0.5" points="148.703505 29.7529948 4.35454764 78.2360677 72.2296266 6.89791667"></polyline>
                    </g>
                    <g id="Group-2-Copy" transform="translate(421.734456, 183.092622) rotate(-60.000000) translate(-421.734456, -183.092622) translate(255.734456, 105.092622)">
                        <ellipse id="Oval-Copy" cx="71.6896054" cy="5.31666667" rx="5.31713186" ry="5.31666667"></ellipse>
                        <ellipse id="Oval-Copy-2" cx="25.8522618" cy="14.1166667" rx="5.31713186" ry="5.31666667"></ellipse>
                        <ellipse id="Oval-Copy-4" cx="5.31713186" cy="77.9166667" rx="5.31713186" ry="5.31666667"></ellipse>
                        <ellipse id="Oval-Copy-6" cx="180.838858" cy="26.4505642" rx="5.31713186" ry="5.31666667"></ellipse>
                        <ellipse id="Oval-Copy-8" cx="150.163138" cy="150.516667" rx="5.31713186" ry="5.31666667"></ellipse>
                        <ellipse id="Oval-Copy-10" cx="326.317132" cy="66.3166667" rx="5.31713186" ry="5.31666667"></ellipse>
                        <ellipse id="Oval-Copy" fill="#FFFFFF" cx="71.6896054" cy="5.31666667" rx="3.48363811" ry="3.48333333"></ellipse>
                        <ellipse id="Oval-Copy-3" fill="#FFFFFF" cx="25.8522618" cy="14.1166667" rx="3.48363811" ry="3.48333333"></ellipse>
                        <ellipse id="Oval-Copy-5" fill="#FFFFFF" cx="5.31713186" cy="77.9166667" rx="3.48363811" ry="3.48333333"></ellipse>
                        <ellipse id="Oval-Copy-7" fill="#FFFFFF" cx="180.838858" cy="26.4505642" rx="3.48363811" ry="3.48333333"></ellipse>
                        <ellipse id="Oval-Copy-9" fill="#FFFFFF" cx="150.163138" cy="150.516667" rx="3.48363811" ry="3.48333333"></ellipse>
                        <ellipse id="Oval-Copy-11" fill="#FFFFFF" cx="326.483638" cy="66.4833333" rx="3.48363811" ry="3.48333333"></ellipse>
                        <polyline id="Path-4" stroke-width="0.5" points="5.19107916 79.0352865 26.2175281 12.2303385 71.5993631 5.21210937 180.551431 25.253876 149.886681 149.10013 180.551431 25.253876"></polyline>
                        <polygon id="Path-5" stroke-width="0.5" points="181.599419 25.3183453 4.35454764 78.2360677 72.6486936 5.54930724"></polygon>
                    </g>
                    <g id="Group-2-Copy-2" transform="translate(198.339303, 440.058489) rotate(140.000000) translate(-198.339303, -440.058489) translate(7.839303, 360.058489)">
                        <ellipse id="Oval-Copy" cx="71.6896054" cy="5.31666667" rx="5.31713186" ry="5.31666667"></ellipse>
                        <ellipse id="Oval-Copy-2" cx="25.8522618" cy="14.1166667" rx="5.31713186" ry="5.31666667"></ellipse>
                        <ellipse id="Oval-Copy-4" cx="5.31713186" cy="77.9166667" rx="5.31713186" ry="5.31666667"></ellipse>
                        <ellipse id="Oval-Copy-6" cx="148.329644" cy="29.5166667" rx="5.31713186" ry="5.31666667"></ellipse>
                        <ellipse id="Oval-Copy-8" cx="150.163138" cy="150.516667" rx="5.31713186" ry="5.31666667"></ellipse>
                        <ellipse id="Oval-Copy-10" cx="333.512512" cy="42.35" rx="5.31713186" ry="5.31666667"></ellipse>
                        <ellipse id="Oval-Copy-12" cx="375.682868" cy="154.183333" rx="5.31713186" ry="5.31666667"></ellipse>
                        <ellipse id="Oval-Copy-14" cx="280.341193" cy="59.2166667" rx="5.31713186" ry="5.31666667"></ellipse>
                        <ellipse id="Oval-Copy" fill="#FFFFFF" cx="71.6896054" cy="5.31666667" rx="3.48363811" ry="3.48333333"></ellipse>
                        <ellipse id="Oval-Copy-3" fill="#FFFFFF" cx="25.8522618" cy="14.1166667" rx="3.48363811" ry="3.48333333"></ellipse>
                        <ellipse id="Oval-Copy-5" fill="#FFFFFF" cx="5.31713186" cy="77.9166667" rx="3.48363811" ry="3.48333333"></ellipse>
                        <ellipse id="Oval-Copy-7" fill="#FFFFFF" cx="148.329644" cy="29.5166667" rx="3.48363811" ry="3.48333333"></ellipse>
                        <ellipse id="Oval-Copy-9" fill="#FFFFFF" cx="150.163138" cy="150.516667" rx="3.48363811" ry="3.48333333"></ellipse>
                        <ellipse id="Oval-Copy-11" fill="#FFFFFF" cx="333.512512" cy="42.35" rx="3.48363811" ry="3.48333333"></ellipse>
                        <ellipse id="Oval-Copy-13" fill="#FFFFFF" cx="375.682868" cy="154.183333" rx="3.48363811" ry="3.48333333"></ellipse>
                        <ellipse id="Oval-Copy-15" fill="#FFFFFF" cx="280.341193" cy="59.2166667" rx="3.48363811" ry="3.48333333"></ellipse>
                        <polyline id="Path-4" stroke-width="0.5" points="5.19107916 79.0352865 26.2175281 12.2303385 71.5993631 5.21210938 149.886681 31.202474 149.886681 149.10013 149.886681 28.9509115 280.558921 60.2135417 333.6357 42.3714844 376.251538 153.13776 277.5179 56.6184896"></polyline>
                        <polyline id="Path-5" stroke-width="0.5" points="148.703505 29.7529948 4.35454764 78.2360677 72.2296266 6.89791667"></polyline>
                    </g>
                    <path d="M185,360.5 L211.5,294" id="Path-6" stroke-width="0.5"></path>
                </g>
            </g>
        </g>
    </g>
</svg>