<?xml version="1.0" encoding="UTF-8"?>
<svg width="236px" height="28px" viewBox="0 0 236 28" version="1.1" xmlns="http://www.w3.org/2000/svg" xmlns:xlink="http://www.w3.org/1999/xlink">
    <!-- Generator: Sketch 48.2 (47327) - http://www.bohemiancoding.com/sketch -->
    <title>hybrid.network</title>
    <desc>Created with Sketch.</desc>
    <defs></defs>
    <g id="Artboard-Copy-47" stroke="none" stroke-width="1" fill="none" fill-rule="evenodd" transform="translate(-52.000000, -46.000000)">
        <g id="Group-5" transform="translate(50.000000, -19.000000)" fill="#FFFFFF">
            <path d="M2.324,86 L2.324,65 L7,65 L7,72 C7.0933338,71.2159961 7.33599804,70.6326686 7.728,70.25 C8.12000196,69.8673314 8.65199664,69.676 9.324,69.676 L11.676,69.676 C12.9453397,69.676 14.0373288,70.1333288 14.952,71.048 C15.8666712,71.9626712 16.324,73.0546603 16.324,74.324 L16.324,86 L11.676,86 L11.676,74.324 C11.676,73.6893302 11.4473356,73.1433356 10.99,72.686 C10.5326644,72.2286644 9.9773366,72 9.324,72 C8.68933016,72 8.14333562,72.2286644 7.686,72.686 C7.22866438,73.1433356 7,73.6893302 7,74.324 L7,86 L2.324,86 Z M23.352,88.324 C23.4640006,89.8920078 24.2386595,90.676 25.676,90.676 L28,90.676 C28.6533366,90.676 29.2086644,90.4473356 29.666,89.99 C30.1233356,89.5326644 30.352,88.9773366 30.352,88.324 L30.352,83.676 C30.1653324,85.2253411 29.3813402,86 28,86 L25.676,86 C24.4066603,86 23.3100046,85.5426712 22.386,84.628 C21.4619954,83.7133288 21,82.6120064 21,81.324 L21,69.676 L25.676,69.676 L25.676,81.324 C25.676,81.9586698 25.9046644,82.509331 26.362,82.976 C26.8193356,83.442669 27.3653302,83.676 28,83.676 C28.6533366,83.676 29.2086644,83.442669 29.666,82.976 C30.1233356,82.509331 30.352,81.9586698 30.352,81.324 L30.352,69.676 L35,69.676 L35,88.324 C35,89.5933397 34.5426712,90.6899954 33.628,91.614 C32.7133288,92.5380046 31.6213397,93 30.352,93 L25.676,93 C22.9319863,93 21.3733352,91.4413489 21,88.324 L23.352,88.324 Z M39.676,86 L39.676,65 L44.352,65 L44.352,72 C44.4453338,71.2159961 44.687998,70.6326686 45.08,70.25 C45.472002,69.8673314 46.0039966,69.676 46.676,69.676 L49.028,69.676 C50.2973397,69.676 51.3893288,70.1333288 52.304,71.048 C53.2186712,71.9626712 53.676,73.0546603 53.676,74.324 L53.676,81.324 C53.676,82.5933397 53.2186712,83.6899954 52.304,84.614 C51.3893288,85.5380046 50.2973397,86 49.028,86 L39.676,86 Z M44.352,83.676 L46.676,83.676 C47.3293366,83.676 47.8846644,83.442669 48.342,82.976 C48.7993356,82.509331 49.028,81.9586698 49.028,81.324 L49.028,74.324 C49.028,73.6893302 48.7993356,73.1433356 48.342,72.686 C47.8846644,72.2286644 47.3293366,72 46.676,72 C46.0413302,72 45.4953356,72.2286644 45.038,72.686 C44.5806644,73.1433356 44.352,73.6893302 44.352,74.324 L44.352,83.676 Z M63.028,86 L58.352,86 L58.352,69.676 L63.028,69.676 L63.028,74.324 C63.2146676,72.7746589 63.6953295,71.6126705 64.47,70.838 C65.2446705,70.0633295 66.3226598,69.676 67.704,69.676 L70.028,69.676 L70.028,74.324 L65.352,74.324 C64.7173302,74.324 64.1713356,74.5526644 63.714,75.01 C63.2566644,75.4673356 63.028,76.0226634 63.028,76.676 L63.028,86 Z M72.352,67.324 L72.352,65 L77.028,65 L77.028,67.324 L72.352,67.324 Z M72.352,86 L72.352,69.676 L77.028,69.676 L77.028,86 L72.352,86 Z M95.676,86 L91.028,86 L91.028,83.676 C90.8413324,85.2253411 90.0573402,86 88.676,86 L86.352,86 C85.0826603,86 83.9860046,85.5426712 83.062,84.628 C82.1379954,83.7133288 81.676,82.6120064 81.676,81.324 L81.676,74.324 C81.676,73.0546603 82.1379954,71.9626712 83.062,71.048 C83.9860046,70.1333288 85.0826603,69.676 86.352,69.676 L91.028,69.676 L91.028,65 L95.676,65 L95.676,86 Z M91.028,72 L88.676,72 C88.0413302,72 87.4953356,72.2286644 87.038,72.686 C86.5806644,73.1433356 86.352,73.6893302 86.352,74.324 L86.352,81.324 C86.352,81.9586698 86.5806644,82.509331 87.038,82.976 C87.4953356,83.442669 88.0413302,83.676 88.676,83.676 C89.3293366,83.676 89.8846644,83.442669 90.342,82.976 C90.7993356,82.509331 91.028,81.9586698 91.028,81.324 L91.028,72 Z M100.352,86 L100.352,81.324 L105.028,81.324 L105.028,86 L100.352,86 Z M109.676,86 L109.676,69.676 L114.352,69.676 L114.352,72 C114.445334,71.2159961 114.687998,70.6326686 115.08,70.25 C115.472002,69.8673314 116.003997,69.676 116.676,69.676 L119.028,69.676 C120.29734,69.676 121.389329,70.1333288 122.304,71.048 C123.218671,71.9626712 123.676,73.0546603 123.676,74.324 L123.676,86 L119.028,86 L119.028,74.324 C119.028,73.6893302 118.799336,73.1433356 118.342,72.686 C117.884664,72.2286644 117.329337,72 116.676,72 C116.04133,72 115.495336,72.2286644 115.038,72.686 C114.580664,73.1433356 114.352,73.6893302 114.352,74.324 L114.352,86 L109.676,86 Z M142.352,79 L133.028,79 L133.028,81.324 C133.028,81.9586698 133.256664,82.509331 133.714,82.976 C134.171336,83.442669 134.71733,83.676 135.352,83.676 L137.704,83.676 C139.253341,83.676 140.028,82.8920078 140.028,81.324 L142.352,81.324 C141.997332,84.4413489 140.448014,86 137.704,86 L133.028,86 C131.75866,86 130.662005,85.5426712 129.738,84.628 C128.813995,83.7133288 128.352,82.6120064 128.352,81.324 L128.352,74.324 C128.352,73.0546603 128.813995,71.9626712 129.738,71.048 C130.662005,70.1333288 131.75866,69.676 133.028,69.676 L137.704,69.676 C138.97334,69.676 140.065329,70.1333288 140.98,71.048 C141.894671,71.9626712 142.352,73.0546603 142.352,74.324 L142.352,79 Z M133.028,76.676 L137.704,76.676 L137.704,74.324 C137.704,73.6893302 137.475336,73.1433356 137.018,72.686 C136.560664,72.2286644 136.005337,72 135.352,72 C134.71733,72 134.171336,72.2286644 133.714,72.686 C133.256664,73.1433356 133.028,73.6893302 133.028,74.324 L133.028,76.676 Z M149.38,65 L154.028,65 L154.028,69.676 L156.38,69.676 L156.38,72 L154.028,72 L154.028,81.324 C154.028,82.0893372 154.279997,82.6726647 154.784,83.074 C155.288003,83.4753353 155.745331,83.676 156.156,83.676 L156.38,83.676 L156.38,86 L154.028,86 C152.75866,86 151.666671,85.5426712 150.752,84.628 C149.837329,83.7133288 149.38,82.6120064 149.38,81.324 L149.38,72 L147.028,72 L147.028,69.676 L149.38,69.676 L149.38,65 Z M161.028,69.676 L165.704,69.676 L165.704,83.676 L168.028,83.676 C168.681337,83.676 169.236664,83.442669 169.694,82.976 C170.151336,82.509331 170.38,81.9586698 170.38,81.324 L170.38,69.676 L175.028,69.676 L175.028,83.676 L177.38,83.676 C178.01467,83.676 178.560664,83.442669 179.018,82.976 C179.475336,82.509331 179.704,81.9586698 179.704,81.324 L179.704,69.676 L184.38,69.676 L184.38,78.02 C184.38,80.2040109 183.600674,82.0799922 182.042,83.648 C180.483326,85.2160078 178.602678,86 176.4,86 L170.38,86 L170.38,85.272 C169.483996,85.7573358 168.382673,86 167.076,86 L161.028,86 L161.028,69.676 Z M193.704,69.676 L198.38,69.676 C199.64934,69.676 200.741329,70.1333288 201.656,71.048 C202.570671,71.9626712 203.028,73.0546603 203.028,74.324 L203.028,81.324 C203.028,82.5933397 202.570671,83.6899954 201.656,84.614 C200.741329,85.5380046 199.64934,86 198.38,86 L193.704,86 C192.43466,86 191.338005,85.5426712 190.414,84.628 C189.489995,83.7133288 189.028,82.6120064 189.028,81.324 L189.028,74.324 C189.028,73.0546603 189.489995,71.9626712 190.414,71.048 C191.338005,70.1333288 192.43466,69.676 193.704,69.676 Z M193.704,74.324 L193.704,81.324 C193.704,81.9586698 193.932664,82.509331 194.39,82.976 C194.847336,83.442669 195.39333,83.676 196.028,83.676 C196.681337,83.676 197.236664,83.442669 197.694,82.976 C198.151336,82.509331 198.38,81.9586698 198.38,81.324 L198.38,74.324 C198.38,73.6893302 198.151336,73.1433356 197.694,72.686 C197.236664,72.2286644 196.681337,72 196.028,72 C195.39333,72 194.847336,72.2286644 194.39,72.686 C193.932664,73.1433356 193.704,73.6893302 193.704,74.324 Z M212.38,86 L207.704,86 L207.704,69.676 L212.38,69.676 L212.38,74.324 C212.566668,72.7746589 213.047329,71.6126705 213.822,70.838 C214.596671,70.0633295 215.67466,69.676 217.056,69.676 L219.38,69.676 L219.38,74.324 L214.704,74.324 C214.06933,74.324 213.523336,74.5526644 213.066,75.01 C212.608664,75.4673356 212.38,76.0226634 212.38,76.676 L212.38,86 Z M221.704,86 L221.704,65 L226.38,65 L226.38,75.5 L233.38,69.676 L238.056,69.676 L228.284,77.824 L238.056,86 L233.38,86 L226.38,80.176 L226.38,86 L221.704,86 Z" id="hybrid.network"></path>
        </g>
    </g>
</svg>